# xmcd
# 
# Track frame offsets:
#     150
#     13388
#     26091
#     38098
#     54568
#     67754
#     86034
#     106342
#     119937
#     133201
#     146016
#     159027
#     173121
#     187228
#     202779
#     221773
#     235452
#     258346
#     276308
#     288934
# 
# Disc length: 4009
# 
# Revision: 1
# Processed by: cddbd v1.5.2PL0 Copyright (c) Steve Scherf et al.
# Submitted via: fre:ac v1.0.17
# 
DISCID=330fa714
DTITLE=Various Artist - Got The Blues
DYEAR=2018
DGENRE=Blues
TTITLE0=Muddy Waters - Mannish Boy
TTITLE1=Booker T. And The MG's -  Green Onions
TTITLE2=John Lee Hooker -  Boom Boom
TTITLE3=Ray Charles - Georgia On My Mind
TTITLE4=Nina Simone -  Feeling Good
TTITLE5=B. B. King -  The Thrill Is Gone
TTITLE6=Buddy Guy -  Damn Right, I've Got The Blues
TTITLE7=Bo Diddley - I'm A Man
TTITLE8=Howlin' Wolf - Moanin' At Midnight
TTITLE9=Big Mama Thornton - Hound Dog
TTITLE10=Arthur 'Big Boy' Crudup - That's All Right
TTITLE11=Fontella Bass - You'll Never Know
TTITLE12=Etta James - I Just Want To Make Love To You
TTITLE13=Hadda Brooks - Need A Little Sugar in My Bowl
TTITLE14=Freddie King - I'm Tore Down
TTITLE15=Guitar Slim - The Things That I Used To Do
TTITLE16=Little Milton - Walking the Backstreets
TTITLE17=Sonny Terry, Brownie McGhee - Walkin My Blues Away
TTITLE18=Big Joe Turner - Flip, Flop and Fly
TTITLE19=Soloman Burke - Cry to Me
EXTD=
EXTT0=
EXTT1=
EXTT2=
EXTT3=
EXTT4=
EXTT5=
EXTT6=
EXTT7=
EXTT8=
EXTT9=
EXTT10=
EXTT11=
EXTT12=
EXTT13=
EXTT14=
EXTT15=
EXTT16=
EXTT17=
EXTT18=
EXTT19=
PLAYORDER=
